<svg id="Capa_1" enable-background="new 0 0 512 512" height="512" viewBox="0 0 512 512" width="512" xmlns="http://www.w3.org/2000/svg"><path d="m208.053 393.994v31.521c0 12.054-5.776 23.247-15.263 29.575l-22.915 15.285h172.249l-22.914-15.285c-9.487-6.328-15.263-17.521-15.263-29.575v-31.521c-31.532 0-64.362 0-95.894 0z" fill="#b1dbfc"/><path d="m208.053 393.994v31.521c0 12.054-5.776 23.247-15.263 29.575l-22.915 15.285h55.596l.483-.322c9.487-6.328 15.263-17.521 15.263-29.575v-21.822c0-5.357 4.342-9.699 9.699-9.699h53.03v-14.963z" fill="#8bcaff"/><path d="m358.16 469.27h-204.32c-5.689 0-10.301 4.612-10.301 10.301v11.535c0 5.689 4.612 10.301 10.301 10.301h204.32c5.689 0 10.301-4.612 10.301-10.301v-11.535c0-5.689-4.612-10.301-10.301-10.301z" fill="#dfebfa"/><path d="m200.63 491.106v-11.535c0-5.689 4.612-10.301 10.301-10.301h-57.091c-5.689 0-10.301 4.612-10.301 10.301v11.535c0 5.689 4.612 10.301 10.301 10.301h57.091c-5.689 0-10.301-4.612-10.301-10.301z" fill="#b1dbfc"/><path d="m482.311 28.989h-452.622c-16.371 0-29.689 13.318-29.689 29.689v306.986c0 16.371 13.318 29.689 29.689 29.689h452.622c16.371 0 29.689-13.318 29.689-29.689v-306.986c0-16.371-13.318-29.689-29.689-29.689z" fill="#695d67"/><path d="m34.342 365.665v-306.987c0-16.371 13.318-29.689 29.689-29.689h-34.342c-16.371 0-29.689 13.318-29.689 29.689v306.986c0 16.371 13.318 29.689 29.689 29.689h34.341c-16.37.001-29.688-13.317-29.688-29.688z" fill="#554e56"/><path d="m32.137 97.273v2.06 259.611c0 2.36 1.912 4.272 4.272 4.272h439.182c2.359 0 4.272-1.912 4.272-4.272 0-6.921 0-186.243 0-261.671z" fill="#dfebfa"/><path d="m63.045 358.945v-259.611-2.06h-30.908v2.06 259.611c0 2.36 1.912 4.272 4.272 4.272h30.907c-2.359 0-4.271-1.912-4.271-4.272z" fill="#b1dbfc"/><path d="m475.591 61.126h-398.09v38.208h402.362c0-17.883 0-30.339 0-33.936 0-2.36-1.913-4.272-4.272-4.272z" fill="#23a8fe"/><path d="m78.531 61.126h-42.122c-2.359 0-4.272 1.912-4.272 4.272v33.936h46.394z" fill="#ff656f"/><path d="m67.315 61.126h-30.906c-2.359 0-4.272 1.912-4.272 4.272v33.936h30.906v-33.936c0-2.359 1.913-4.272 4.272-4.272z" fill="#ff4756"/><g fill="#ff656f"><path d="m127.779 275.2h14.326c2.865 0 4.488 2.769 4.488 5.826 0 2.579-1.336 5.635-4.488 5.635h-14.326v16.235h25.595c2.865 0 4.489 3.056 4.489 6.59 0 3.056-1.337 6.399-4.489 6.399h-33.999c-3.247 0-6.494-1.529-6.494-4.584v-60.644c0-3.056 3.247-4.584 6.494-4.584h33.999c3.152 0 4.489 3.343 4.489 6.399 0 3.534-1.624 6.59-4.489 6.59h-25.595z"/><path d="m164.354 250.561c0-2.387 1.815-4.488 4.585-4.488h19.768c13.084 0 23.494 4.87 23.494 20.437 0 10.697-4.871 16.809-11.556 19.387l11.652 21.106c.382.573.477 1.241.477 1.719 0 5.633-10.838 11.256-14.134 4.967l-13.084-25.404h-6.303v23.016c0 3.055-3.724 4.584-7.449 4.584s-7.45-1.529-7.45-4.584zm14.898 8.5v17.763h9.455c5.349 0 8.596-2.196 8.596-8.882 0-6.685-3.247-8.882-8.596-8.882h-9.455z"/><path d="m220.126 250.561c0-2.387 1.815-4.488 4.585-4.488h19.768c13.084 0 23.494 4.87 23.494 20.437 0 10.697-4.871 16.809-11.556 19.387l11.652 21.106c.381.573.477 1.241.477 1.719 0 5.633-10.838 11.256-14.134 4.967l-13.084-25.404h-6.303v23.016c0 3.055-3.724 4.584-7.449 4.584s-7.45-1.529-7.45-4.584zm14.898 8.5v17.763h9.455c5.349 0 8.596-2.196 8.596-8.882 0-6.685-3.247-8.882-8.596-8.882h-9.455z"/><path d="m275.135 293.919v-25.309c0-16.426 10.218-22.538 23.398-22.538s23.493 6.112 23.493 22.538v25.308c0 16.427-10.314 22.539-23.493 22.539s-23.398-6.112-23.398-22.538zm31.992-25.309c0-6.589-3.247-9.549-8.595-9.549s-8.499 2.961-8.499 9.549v25.308c0 6.59 3.152 9.55 8.499 9.55s8.595-2.961 8.595-9.55z"/><path d="m331.574 250.561c0-2.387 1.815-4.488 4.585-4.488h19.768c13.084 0 23.494 4.87 23.494 20.437 0 10.697-4.871 16.809-11.556 19.387l11.652 21.106c.381.573.477 1.241.477 1.719 0 5.633-10.838 11.256-14.134 4.967l-13.084-25.404h-6.303v23.016c0 3.055-3.724 4.584-7.449 4.584s-7.45-1.529-7.45-4.584zm14.898 8.5v17.763h9.455c5.349 0 8.596-2.196 8.596-8.882 0-6.685-3.247-8.882-8.596-8.882h-9.455z"/><path d="m400.525 309.103c0 3.916-3.343 7.354-7.258 7.354-4.201 0-7.353-3.438-7.353-7.354 0-4.01 3.152-7.353 7.353-7.353 3.916 0 7.258 3.343 7.258 7.353zm-1.814-18.145c0 2.961-3.247 4.202-5.54 4.202-3.056 0-5.634-1.242-5.634-4.202 0-11.364-1.336-27.695-1.336-39.06 0-3.725 3.056-5.826 6.971-5.826 3.725 0 6.876 2.101 6.876 5.826 0 11.365-1.337 27.696-1.337 39.06z"/></g><circle cx="255.891" cy="109.823" fill="#ff8188" r="99.229"/><path d="m186.471 109.823c0-49.737 36.593-90.925 84.325-98.115-4.862-.732-9.838-1.114-14.905-1.114-54.803 0-99.229 44.427-99.229 99.229s44.427 99.229 99.229 99.229c5.066 0 10.043-.382 14.905-1.114-47.731-7.191-84.325-48.379-84.325-98.115z" fill="#ff656f"/><circle cx="255.891" cy="109.823" fill="#ff656f" r="70.45"/><path d="m215.251 109.823c0-33.793 23.798-62.015 55.545-68.855-4.806-1.036-9.789-1.594-14.905-1.594-38.908 0-70.45 31.541-70.45 70.45s31.541 70.45 70.45 70.45c5.116 0 10.099-.559 14.905-1.594-31.747-6.843-55.545-35.065-55.545-68.857z" fill="#ff4756"/><path d="m278.961 113.833c-2.215-2.215-2.215-5.806 0-8.021l8.935-8.935c2.215-2.215 2.215-5.806 0-8.021l-11.04-11.04c-2.215-2.215-5.806-2.215-8.021 0l-8.934 8.934c-2.215 2.215-5.806 2.215-8.021 0l-8.934-8.934c-2.215-2.215-5.806-2.215-8.021 0l-11.04 11.04c-2.215 2.215-2.215 5.806 0 8.021l8.935 8.935c2.215 2.215 2.215 5.806 0 8.021l-8.935 8.935c-2.215 2.215-2.215 5.806 0 8.021l11.04 11.04c2.215 2.215 5.806 2.215 8.021 0l8.934-8.934c2.215-2.215 5.806-2.215 8.021 0l8.934 8.934c2.215 2.215 5.806 2.215 8.021 0l11.04-11.04c2.215-2.215 2.215-5.806 0-8.021z" fill="#dfebfa"/><path d="m253.696 130.789c-2.215-2.215-2.215-5.806 0-8.021l8.935-8.935c2.215-2.215 2.215-5.806 0-8.02l-8.935-8.935c-2.215-2.215-2.215-5.806 0-8.021l.677-.677c-.911-.253-1.776-.712-2.492-1.428l-8.934-8.934c-2.215-2.215-5.806-2.215-8.02 0l-11.04 11.039c-2.215 2.215-2.215 5.806 0 8.021l8.935 8.935c2.215 2.215 2.215 5.806 0 8.02l-8.935 8.935c-2.215 2.215-2.215 5.806 0 8.021l11.04 11.039c2.215 2.215 5.806 2.215 8.02 0l8.934-8.934c.716-.716 1.581-1.175 2.492-1.428z" fill="#b1dbfc"/></svg>