<svg id="Layer_1" enable-background="new 0 0 130 130" height="512" viewBox="0 0 130 130" width="512" xmlns="http://www.w3.org/2000/svg"><g><circle cx="65" cy="65" fill="#ffceab" r="64"/><g fill="#f4bd98"><path d="m67.30848 120.16197c0-.55517.45005-1.00522 1.00522-1.00522h2.37978c.55277 0 1.00515.45233 1.00515 1.0052s-.45238 1.00524-1.00515 1.00524h-2.37978c-.55517 0-1.00522-.45005-1.00522-1.00522z"/><path d="m64.44055 120.16197c0 .55517-.45005 1.00522-1.00521 1.00522h-12.65655c-.55516 0-1.00521-.45005-1.00521-1.00522 0-.55517.45005-1.00522 1.00521-1.00522h12.65654c.55518 0 1.00522.45005 1.00522 1.00522z"/><path d="m112.90088 94.34303c0 .55517-.45005 1.00522-1.00522 1.00522h-12.65654c-.55517 0-1.00522-.45005-1.00522-1.00521v-.00001c0-.55516.45005-1.00522 1.00522-1.00522h12.65654c.55517 0 1.00522.45005 1.00522 1.00522z"/><path d="m81.11284 120.16197c0 .55517-.45006 1.00522-1.00522 1.00522h-4.68961c-.55517 0-1.00522-.45005-1.00522-1.00522 0-.55517.45005-1.00522 1.00522-1.00522h4.68961c.55516 0 1.00522.45005 1.00522 1.00522z"/><path d="m112.56458 61.65861c0-.55516-.45005-1.00522-1.00522-1.00522h-7.50102c-.55296 0-1.00515.45237-1.00515 1.00524s.45219 1.0052 1.00515 1.0052l7.50102.00001c.55516-.00001 1.00522-.45006 1.00522-1.00523z"/><path d="m114.12592 61.65861c0 .55517.45005 1.00522 1.00522 1.00522h1.23928c.55516 0 1.00522-.45005 1.00522-1.00522 0-.55517-.45006-1.00522-1.00522-1.00522h-1.23928c-.55517 0-1.00522.45005-1.00522 1.00522z"/><path d="m1.15255 60.65338c.04004-.68018.09985-1.3501.15991-2.00977h9.88013c.55981 0 1.01001.44971 1.01001 1 0 .56006-.4502 1.00977-1.01001 1.00977z"/><path d="m89.6065 5.91331h-4.52295c-.55518 0-1.00513.45007-1.00513 1.00519v.00006c0 .55518.44995 1.00519 1.00513 1.00519h8.85034c-1.41504-.71888-2.85425-1.39612-4.32739-2.01044z"/><path d="m71.98874 7.92378h8.95542c.55517 0 1.00522-.45005 1.00522-1.00522 0-.55517-.45005-1.00522-1.00522-1.00522h-8.95542c-.55296 0-1.00533.45237-1.00533 1.00524s.45237 1.0052 1.00533 1.0052z"/><path d="m34.04067 36.62015h-12.75004c-.55516 0-1.00525-.45005-1.00529-1.00522-.00005-.55517.44997-1.00522 1.00513-1.00522h12.75004c.55296 0 1.00518.45237 1.00523 1.00524.00004.55288-.45211 1.0052-1.00507 1.0052z"/><path d="m17.67278 35.61493c.00004.55517-.44997 1.00522-1.00513 1.00522h-1.08029c-.55513 0-1.00518-.45006-1.00523-1.0052-.00004-.55518.44993-1.00524 1.00507-1.00524h1.08029c.55516 0 1.00525.45005 1.00529 1.00522z"/><path d="m39.83566 73.98921-12.75005-.00001c-.55516 0-1.00525-.45005-1.00529-1.00522-.00004-.55517.44997-1.00522 1.00513-1.00522h12.75004c.55296 0 1.00518.45238 1.00523 1.00524.00005.55288-.45211 1.00521-1.00506 1.00521z"/><path d="m23.46777 72.98399c.00005.55517-.44997 1.00522-1.00513 1.00522h-1.08029c-.55513 0-1.00518-.45007-1.00523-1.0052-.00005-.55518.44993-1.00524 1.00507-1.00524h1.0803c.55515 0 1.00523.45005 1.00528 1.00522z"/><path d="m52.0248 16.50435h-12.75004c-.55517 0-1.00525-.45005-1.0053-1.00522-.00004-.55517.44997-1.00522 1.00513-1.00522h12.75004c.55296 0 1.00518.45237 1.00523 1.00524s-.45211 1.0052-1.00506 1.0052z"/><path d="m35.65691 15.49913c.00005.55517-.44997 1.00522-1.00513 1.00522h-1.0803c-.55513 0-1.00518-.45006-1.00523-1.0052-.00005-.55518.44993-1.00524 1.00507-1.00524h1.0803c.55516 0 1.00524.45005 1.00529 1.00522z"/><path d="m19.78275 92.33257c0 .55517-.45005 1.00522-1.00522 1.00522h-1.67143c-.55517 0-1.00522-.45005-1.00522-1.00522 0-.55517.45005-1.00522 1.00522-1.00522h1.67143c.55517 0 1.00522.45005 1.00522 1.00522z"/><path d="m12.43609 91.32737h-5.77051c.30518.67554.61621 1.3476.94409 2.01044h4.82642c.55518 0 1.00537-.45007 1.00537-1.00525s-.4502-1.00519-1.00537-1.00519z"/><path d="m116.92334 35.61493h-7.73811c-.55516 0-1.00525-.45005-1.00529-1.00522-.00005-.55516.44997-1.00521 1.00513-1.00521h7.73811c.55296 0 1.00518.45237 1.00523 1.00524s-.45211 1.00519-1.00507 1.00519z"/><path d="m98.453 35.61493h-3.87528c-.55516 0-1.00525-.45005-1.00529-1.00522-.00005-.55516.44997-1.00521 1.00513-1.00521h3.87528c.55296 0 1.00519.45237 1.00523 1.00524s-.4521 1.00519-1.00507 1.00519z"/><path d="m105.56739 34.60971c.00005.55516-.44997 1.00521-1.00513 1.00521h-1.08029c-.55514 0-1.00519-.45006-1.00523-1.0052-.00004-.55518.44994-1.00524 1.00507-1.00524h1.08029c.55516.00001 1.00524.45006 1.00529 1.00523z"/></g><path d="m98.13277 26.2316v84.38535l-6.27595 4.02178-6.27596-4.02178-6.27164 4.02178-6.27363-4.02178-6.27145 4.02178-6.26983-4.02178-6.26972 4.02178-6.27139-4.02178-6.27075 4.02178-6.27181-4.02178v-84.38535c0-1.80858 1.46614-3.27472 3.27472-3.27472h56.17266c1.80861 0 3.27475 1.46614 3.27475 3.27472z" fill="#f4bd98"/><path d="m96.32563 24.42446v84.38536l-6.27596 4.02178-6.27595-4.02178-6.27164 4.02178-6.27363-4.02178-6.27145 4.02178-6.26983-4.02178-6.26972 4.02178-6.27139-4.02178-6.27074 4.02178-6.27181-4.02178v-84.38536c0-1.80858 1.46614-3.27472 3.27472-3.27472h56.17267c1.80859 0 3.27473 1.46614 3.27473 3.27472z" fill="#fff"/><path d="m96.32462 24.42645v84.388l-6.27683 4.01803-6.27657-4.01803-6.2664 4.01803-6.27683-4.01803-6.2664 4.01803-6.27683-4.01803-6.26641 4.01803-6.27683-4.01803-6.26641 4.01803-6.27683-4.01803v-1.41565l2.34209 1.49894 6.27683-4.01797 6.26641 4.01797 6.27683-4.01797 6.26641 4.01797 6.26641-4.01797 6.27683 4.01797 6.27682-4.01797 6.27657 4.01797 6.26641-4.01797v-83.73227h.65591c1.81119 0 3.27882 1.46768 3.27882 3.27895z" fill="#ededed"/><g fill="#f34b50"><path d="m59.41623 27.51925c.10173 0 .1899.03674.2645.11077.07347.0746.11077.1622.11077.26394v.98623c0 .1023-.0373.1899-.11077.26394-.0746.0746-.16277.11134-.2645.11134h-4.43099v2.69476h4.15292c.10286 0 .1899.03674.2645.11078.07347.07404.11077.1622.11077.26394v.98624c0 .10173-.0373.1899-.11077.26394-.0746.07404-.16164.11134-.2645.11134h-4.15292v3.18025c0 .10229-.03617.1899-.11077.26394-.0746.0746-.16164.11134-.26337.11134h-1.12583c-.10173 0-.1899-.03674-.26337-.11134-.0746-.07404-.1119-.16164-.1119-.26394v-8.97275c0-.10173.0373-.18933.1119-.26394.07347-.07404.16164-.11077.26337-.11077h5.93096z"/><path d="m67.8758 35.50577c.10173 0 .18877.0373.26337.11134s.11077.16164.11077.26394v.98567c0 .10229-.03617.1899-.11077.26394-.0746.0746-.16164.11134-.26337.11134h-6.09826c-.10173 0-.1899-.03674-.26337-.11134-.0746-.07404-.1119-.16164-.1119-.26394v-8.97275c0-.10173.0373-.18933.1119-.26394.07347-.07404.16164-.11077.26337-.11077h5.98636c.10173 0 .1899.03674.2645.11077.07348.0746.11078.1622.11078.26394v.98623c0 .1023-.0373.1899-.11078.26394-.0746.0746-.16277.11134-.2645.11134h-4.48638v2.20815h4.18118c.10173 0 .1899.0373.2645.11134.07347.07404.11077.1622.11077.26394v.98623c0 .10173-.0373.1899-.11077.26394-.07461.07404-.16277.11077-.2645.11077h-4.18118v2.30592z"/><path d="m76.44501 35.50577c.10173 0 .18877.0373.26337.11134s.11077.16164.11077.26394v.98567c0 .10229-.03617.1899-.11077.26394-.07461.0746-.16164.11134-.26337.11134h-6.09826c-.10173 0-.1899-.03674-.26337-.11134-.0746-.07404-.1119-.16164-.1119-.26394v-8.97275c0-.10173.0373-.18933.1119-.26394.07348-.07404.16164-.11077.26337-.11077h5.98635c.10174 0 .1899.03674.2645.11077.07348.0746.11078.1622.11078.26394v.98623c0 .1023-.0373.1899-.11078.26394-.0746.0746-.16277.11134-.2645.11134h-4.48637v2.20815h4.18118c.10173 0 .1899.0373.2645.11134.07347.07404.11077.1622.11077.26394v.98623c0 .10173-.0373.1899-.11077.26394-.07461.07404-.16277.11077-.2645.11077h-4.18118v2.30592z"/></g><g><g><path d="m42.62354 42.75832h-1.56139c-.28768 0-.52046-.23278-.52046-.52046s.23278-.52047.52046-.52047h1.56139c.28768 0 .52047.23279.52047.52047s-.23279.52046-.52047.52046z" fill="#ededed"/></g><g><path d="m83.42 42.75832h-2.91338c-.28768 0-.52046-.23278-.52046-.52046s.23278-.52047.52046-.52047h2.91338c.28768 0 .52047.23279.52047.52047s-.23279.52046-.52047.52046zm-6.79958 0h-2.91338c-.28767 0-.52046-.23278-.52046-.52046s.23279-.52047.52046-.52047h2.91338c.28768 0 .52046.23279.52046.52047s-.23278.52046-.52046.52046zm-6.79958 0h-2.91338c-.28768 0-.52046-.23278-.52046-.52046s.23278-.52047.52046-.52047h2.91338c.28768 0 .52047.23279.52047.52047s-.23279.52046-.52047.52046zm-6.79856 0h-2.9144c-.28768 0-.52046-.23278-.52046-.52046s.23278-.52047.52046-.52047h2.9144c.28768 0 .52046.23279.52046.52047s-.23278.52046-.52046.52046zm-6.79958 0h-2.9144c-.28768 0-.52046-.23278-.52046-.52046s.23278-.52047.52046-.52047h2.9144c.28768 0 .52046.23279.52046.52047s-.23278.52046-.52046.52046zm-6.79958 0h-2.9144c-.28768 0-.52046-.23278-.52046-.52046s.23278-.52047.52046-.52047h2.9144c.28768 0 .52046.23279.52046.52047s-.23278.52046-.52046.52046z" fill="#ededed"/></g><g><path d="m88.86658 42.75832h-1.56139c-.28767 0-.52046-.23278-.52046-.52046s.23279-.52047.52046-.52047h1.56139c.28768 0 .52046.23279.52046.52047s-.23278.52046-.52046.52046z" fill="#ededed"/></g></g><g fill="#ededed"><path d="m89.39005 54.60294c0 1.35673-1.09984 2.45658-2.45657 2.45658h-43.9378c-1.35673 0-2.45657-1.09985-2.45657-2.45657 0-1.35673 1.09984-2.45657 2.45657-2.45657h43.9378c1.35673-.00001 2.45657 1.09984 2.45657 2.45656z"/><path d="m89.39005 66.34122c0 1.35674-1.09984 2.45658-2.45657 2.45658h-43.9378c-1.35673 0-2.45657-1.09985-2.45657-2.45657v-.00001c0-1.35673 1.09984-2.45657 2.45657-2.45657h43.9378c1.35673 0 2.45657 1.09985 2.45657 2.45657z"/><path d="m89.39005 78.07951c0 1.35673-1.09984 2.45657-2.45657 2.45657h-43.9378c-1.35673 0-2.45657-1.09985-2.45657-2.45657 0-1.35673 1.09984-2.45657 2.45657-2.45657h43.9378c1.35673 0 2.45657 1.09985 2.45657 2.45657z"/><path d="m74.41279 89.81779c0 1.35674-1.09985 2.45657-2.45657 2.45657h-28.96054c-1.35673 0-2.45657-1.09984-2.45657-2.45657v-.00001c0-1.35673 1.09984-2.45657 2.45657-2.45657h28.96054c1.35672.00001 2.45657 1.09986 2.45657 2.45658z"/></g></g></svg>