<svg fill="none" height="512" viewBox="0 0 24 24" width="512" xmlns="http://www.w3.org/2000/svg" xmlns:xlink="http://www.w3.org/1999/xlink"><linearGradient id="paint0_linear_3195_2373" gradientUnits="userSpaceOnUse" x1="11.75" x2="11.75" y1="1.73" y2="22.27"><stop offset="0" stop-color="#fd5394"/><stop offset="1" stop-color="#8100e4"/></linearGradient><g fill="url(#paint0_linear_3195_2373)"><path d="m15.24 22.27h-.13c-4.44 0-6.58-1.75-6.95-5.67-.04-.41.26-.78.68-.82.41-.04.78.27.82.68.29 3.14 1.77 4.31 5.46 4.31h.13c4.07 0 5.51-1.44 5.51-5.51v-6.52002c0-4.07-1.44-5.51-5.51-5.51h-.13c-3.71 0-5.19 1.19-5.46 4.39-.05.41-.39.72-.82.68-.42-.03-.72-.4-.69-.81.34-3.98 2.49-5.76 6.96-5.76h.13c4.91 0 7.01 2.1 7.01 7.01v6.52002c0 4.91-2.1 7.01-7.01 7.01z"/><path d="m14.88 12.75h-12.88c-.41 0-.75-.34-.75-.75s.34-.75.75-.75h12.88c.41 0 .75.34.75.75s-.33.75-.75.75z"/><path d="m12.65 16.1c-.19 0-.38-.07-.53-.22-.29-.29-.29-.77 0-1.06l2.82-2.82-2.82-2.82002c-.29-.29-.29-.77 0-1.06s.77-.29 1.06 0l3.35 3.35002c.29.29.29.77 0 1.06l-3.35 3.35c-.15.15-.34.22-.53.22z"/></g></svg>