<svg viewBox="1 -10 511.99999 511" xmlns="http://www.w3.org/2000/svg"><path d="m490 245.5c0 135.308594-109.691406 245-245 245s-245-109.691406-245-245 109.691406-245 245-245 245 109.691406 245 245zm0 0" fill="#ff9f60"/><path d="m298.964844 356.480469c0-58.457031 47.558594-106.015625 106.019531-106.015625 25.667969 0 49.234375 9.171875 67.597656 24.410156v-158.375h-433.164062v262.300781c11.296875 17.382813 24.734375 33.246094 39.945312 47.210938h245.652344c-16.21875-18.625-26.050781-42.953125-26.050781-69.53125zm0 0" fill="#eef6ff"/><path d="m39.417969 116.5v262.300781c8.914062 13.71875 19.183593 26.472657 30.582031 38.109375v-300.410156zm0 0" fill="#d9eafc"/><path d="m462.582031 55.5h-413.164062c-5.5 0-10 4.5-10 10v52h433.164062v-52c0-5.5-4.5-10-10-10zm0 0" fill="#ea2a3d"/><path d="m80 55.5h-30.582031c-5.5 0-10 4.5-10 10v52h30.582031v-52c0-5.5 4.5-10 10-10zm0 0" fill="#b7092b"/><path d="m150.578125 189.789062c0 2.75-2.25 5-5 5h-71.09375c-2.75 0-5-2.25-5-5v-42.261718c0-2.75 2.25-5 5-5h71.09375c2.75 0 5 2.25 5 5zm0 0" fill="#91e0e8"/><path d="m247.890625 189.789062c0 2.75-2.25 5-5 5h-71.09375c-2.75 0-5-2.25-5-5v-42.261718c0-2.75 2.25-5 5-5h71.09375c2.75 0 5 2.25 5 5zm0 0" fill="#91e0e8"/><path d="m345.203125 189.789062c0 2.75-2.25 5-5 5h-71.09375c-2.75 0-5-2.25-5-5v-42.261718c0-2.75 2.25-5 5-5h71.09375c2.75 0 5 2.25 5 5zm0 0" fill="#91e0e8"/><path d="m442.515625 189.789062c0 2.75-2.25 5-5 5h-71.09375c-2.75 0-5-2.25-5-5v-42.261718c0-2.75 2.25-5 5-5h71.09375c2.75 0 5 2.25 5 5zm0 0" fill="#ffc987"/><path d="m150.578125 256.464844c0 2.75-2.25 5-5 5h-71.09375c-2.75 0-5-2.25-5-5v-42.261719c0-2.75 2.25-5 5-5h71.09375c2.75 0 5 2.25 5 5zm0 0" fill="#91e0e8"/><path d="m247.890625 256.464844c0 2.75-2.25 5-5 5h-71.09375c-2.75 0-5-2.25-5-5v-42.261719c0-2.75 2.25-5 5-5h71.09375c2.75 0 5 2.25 5 5zm0 0" fill="#91e0e8"/><path d="m345.203125 256.464844c0 2.75-2.25 5-5 5h-71.09375c-2.75 0-5-2.25-5-5v-42.261719c0-2.75 2.25-5 5-5h71.09375c2.75 0 5 2.25 5 5zm0 0" fill="#91e0e8"/><path d="m404.980469 250.464844c13.179687 0 25.800781 2.425781 37.449219 6.835937.046874-.273437.085937-.546875.085937-.835937v-42.261719c0-2.75-2.25-5-5-5h-71.09375c-2.75 0-5 2.25-5 5v42.261719c0 1.101562.371094 2.109375.976563 2.9375 13.042968-5.742188 27.445312-8.9375 42.582031-8.9375zm0 0" fill="#ffc987"/><path d="m150.578125 323.144531c0 2.75-2.25 5-5 5h-71.09375c-2.75 0-5-2.25-5-5v-42.261719c0-2.75 2.25-5 5-5h71.09375c2.75 0 5 2.25 5 5zm0 0" fill="#91e0e8"/><path d="m247.890625 323.144531c0 2.75-2.25 5-5 5h-71.09375c-2.75 0-5-2.25-5-5v-42.261719c0-2.75 2.25-5 5-5h71.09375c2.75 0 5 2.25 5 5zm0 0" fill="#91e0e8"/><path d="m336.191406 275.882812h-67.082031c-2.75 0-5 2.25-5 5v42.261719c0 2.75 2.25 5 5 5h33.707031c5.726563-20.617187 17.539063-38.726562 33.375-52.261719zm0 0" fill="#91e0e8"/><path d="m150.578125 389.820312c0 2.75-2.25 5-5 5h-71.09375c-2.75 0-5-2.25-5-5v-42.261718c0-2.75 2.25-5 5-5h71.09375c2.75 0 5 2.25 5 5zm0 0" fill="#91e0e8"/><path d="m247.890625 389.820312c0 2.75-2.25 5-5 5h-71.09375c-2.75 0-5-2.25-5-5v-42.261718c0-2.75 2.25-5 5-5h71.09375c2.75 0 5 2.25 5 5zm0 0" fill="#91e0e8"/><path d="m298.964844 356.480469c0-4.71875.3125-9.363281.914062-13.921875h-30.769531c-2.75 0-5 2.25-5 5v42.261718c0 2.75 2.25 5 5 5h37.03125c-4.628906-11.894531-7.175781-24.824218-7.175781-38.339843zm0 0" fill="#91e0e8"/><g fill="#c3ddf4"><path d="m76 31.867188c-4.144531 0-7.5 3.355468-7.5 7.5v41.269531c0 4.140625 3.355469 7.5 7.5 7.5s7.5-3.359375 7.5-7.5v-41.269531c0-4.144532-3.355469-7.5-7.5-7.5zm0 0"/><path d="m112 31.867188c-4.144531 0-7.5 3.355468-7.5 7.5v41.269531c0 4.140625 3.355469 7.5 7.5 7.5s7.5-3.359375 7.5-7.5v-41.269531c0-4.144532-3.355469-7.5-7.5-7.5zm0 0"/><path d="m148 31.867188c-4.144531 0-7.5 3.355468-7.5 7.5v41.269531c0 4.140625 3.355469 7.5 7.5 7.5s7.5-3.359375 7.5-7.5v-41.269531c0-4.144532-3.355469-7.5-7.5-7.5zm0 0"/><path d="m184 31.867188c-4.144531 0-7.5 3.355468-7.5 7.5v41.269531c0 4.140625 3.355469 7.5 7.5 7.5s7.5-3.359375 7.5-7.5v-41.269531c0-4.144532-3.355469-7.5-7.5-7.5zm0 0"/><path d="m220 31.867188c-4.144531 0-7.5 3.355468-7.5 7.5v41.269531c0 4.140625 3.355469 7.5 7.5 7.5s7.5-3.359375 7.5-7.5v-41.269531c0-4.144532-3.355469-7.5-7.5-7.5zm0 0"/><path d="m256 31.867188c-4.144531 0-7.5 3.355468-7.5 7.5v41.269531c0 4.140625 3.355469 7.5 7.5 7.5s7.5-3.359375 7.5-7.5v-41.269531c0-4.144532-3.355469-7.5-7.5-7.5zm0 0"/><path d="m292 31.867188c-4.144531 0-7.5 3.355468-7.5 7.5v41.269531c0 4.140625 3.355469 7.5 7.5 7.5s7.5-3.359375 7.5-7.5v-41.269531c0-4.144532-3.355469-7.5-7.5-7.5zm0 0"/><path d="m328 31.867188c-4.144531 0-7.5 3.355468-7.5 7.5v41.269531c0 4.140625 3.355469 7.5 7.5 7.5s7.5-3.359375 7.5-7.5v-41.269531c0-4.144532-3.355469-7.5-7.5-7.5zm0 0"/><path d="m364 31.867188c-4.144531 0-7.5 3.355468-7.5 7.5v41.269531c0 4.140625 3.355469 7.5 7.5 7.5s7.5-3.359375 7.5-7.5v-41.269531c0-4.144532-3.355469-7.5-7.5-7.5zm0 0"/><path d="m400 31.867188c-4.144531 0-7.5 3.355468-7.5 7.5v41.269531c0 4.140625 3.355469 7.5 7.5 7.5s7.5-3.359375 7.5-7.5v-41.269531c0-4.144532-3.355469-7.5-7.5-7.5zm0 0"/><path d="m436 31.867188c-4.144531 0-7.5 3.355468-7.5 7.5v41.269531c0 4.140625 3.355469 7.5 7.5 7.5s7.5-3.359375 7.5-7.5v-41.269531c0-4.144532-3.355469-7.5-7.5-7.5zm0 0"/></g><path d="m512 356.480469c0 59.105469-47.914062 107.019531-107.019531 107.019531-59.101563 0-107.015625-47.914062-107.015625-107.019531 0-59.101563 47.914062-107.015625 107.015625-107.015625 59.105469 0 107.019531 47.914062 107.019531 107.015625zm0 0" fill="#1a2b63"/><path d="m404.980469 435.5c-43.570313 0-79.015625-35.445312-79.015625-79.019531 0-43.570313 35.445312-79.015625 79.015625-79.015625 43.574219 0 79.019531 35.445312 79.019531 79.015625 0 43.574219-35.445312 79.019531-79.019531 79.019531zm0 0" fill="#fff"/><path d="m340.96875 356.480469c0-41.039063 31.449219-74.859375 71.515625-78.648438-2.472656-.234375-4.972656-.367187-7.5-.367187-43.570313 0-79.019531 35.445312-79.019531 79.019531 0 43.570313 35.445312 79.015625 79.019531 79.015625 2.527344 0 5.027344-.132812 7.5-.363281-40.066406-3.792969-71.515625-37.613281-71.515625-78.65625zm0 0" fill="#eef6ff"/><path d="m404.980469 277.464844v62.660156c9.023437 0 16.359375 7.335938 16.359375 16.355469h62.65625c.003906-43.570313-35.441406-79.015625-79.015625-79.015625zm0 0" fill="#ffdd8d"/><path d="m404.980469 340.125c2.707031 0 5.253906.667969 7.5 1.835938v-41.371094c0-4.144532-3.355469-7.5-7.5-7.5-4.140625 0-7.5 3.355468-7.5 7.5v41.371094c2.25-1.167969 4.796875-1.835938 7.5-1.835938zm0 0" fill="#0f9390"/><path d="m448.320312 348.980469h-28.816406c1.167969 2.25 1.835938 4.796875 1.835938 7.5 0 2.707031-.667969 5.253906-1.835938 7.5h28.816406c4.140626 0 7.5-3.355469 7.5-7.5 0-4.140625-3.359374-7.5-7.5-7.5zm0 0" fill="#0f9390"/><path d="m404.980469 373.839844c-9.570313 0-17.355469-7.785156-17.355469-17.355469 0-9.574219 7.785156-17.359375 17.355469-17.359375 9.574219 0 17.359375 7.785156 17.359375 17.359375 0 9.570313-7.785156 17.355469-17.359375 17.355469zm0 0" fill="#2bb381"/><path d="m404.980469 428c-4.140625 0-7.5-3.355469-7.5-7.5v-8c0-4.144531 3.359375-7.5 7.5-7.5 4.144531 0 7.5 3.355469 7.5 7.5v8c0 4.144531-3.355469 7.5-7.5 7.5zm0 0" fill="#60d882"/><path d="m359.714844 409.25c-1.917969 0-3.835938-.730469-5.304688-2.195312-2.925781-2.929688-2.925781-7.679688.003906-10.609376l5.65625-5.65625c2.929688-2.925781 7.675782-2.925781 10.605469.003907 2.929688 2.929687 2.929688 7.675781 0 10.605469l-5.65625 5.65625c-1.464843 1.464843-3.382812 2.195312-5.304687 2.195312zm0 0" fill="#60d882"/><path d="m348.964844 363.984375h-8c-4.140625-.003906-7.5-3.359375-7.5-7.503906.003906-4.140625 3.359375-7.496094 7.5-7.496094h.003906 7.996094c4.144531 0 7.5 3.359375 7.5 7.5 0 4.144531-3.359375 7.5-7.5 7.5zm0 0" fill="#60d882"/><path d="m365.371094 324.375c-1.921875 0-3.839844-.734375-5.304688-2.199219l-5.65625-5.65625c-2.925781-2.929687-2.925781-7.679687.003906-10.605469 2.929688-2.929687 7.675782-2.929687 10.605469 0l5.65625 5.65625c2.925781 2.933594 2.925781 7.679688-.003906 10.609376-1.460937 1.464843-3.382813 2.195312-5.300781 2.195312zm0 0" fill="#60d882"/><path d="m450.25 409.25c-1.921875 0-3.839844-.730469-5.304688-2.199219l-5.65625-5.65625c-2.929687-2.929687-2.925781-7.679687.003907-10.605469 2.925781-2.929687 7.675781-2.929687 10.605469 0l5.65625 5.660157c2.925781 2.929687 2.925781 7.679687-.003907 10.605469-1.464843 1.464843-3.382812 2.195312-5.300781 2.195312zm0 0" fill="#60d882"/><path d="m105.5 184.625c-2.277344 0-4.433594-1.035156-5.855469-2.8125l-16.5-20.625c-2.589843-3.234375-2.0625-7.957031 1.171875-10.542969 3.234375-2.589843 7.953125-2.0625 10.539063 1.171875l10.644531 13.304688 27.144531-33.929688c2.585938-3.234375 7.308594-3.761718 10.542969-1.171875 3.234375 2.585938 3.757812 7.308594 1.171875 10.542969l-33 41.25c-1.425781 1.777344-3.582031 2.8125-5.859375 2.8125zm0 0" fill="#02af8e"/><path d="m105.5 317c-2.277344 0-4.433594-1.035156-5.855469-2.816406l-16.5-20.625c-2.589843-3.234375-2.0625-7.953125 1.171875-10.539063 3.234375-2.589843 7.953125-2.066406 10.539063 1.167969l10.644531 13.304688 27.144531-33.929688c2.585938-3.234375 7.308594-3.757812 10.542969-1.167969 3.234375 2.585938 3.757812 7.304688 1.171875 10.539063l-33 41.25c-1.425781 1.78125-3.582031 2.816406-5.859375 2.816406zm0 0" fill="#02af8e"/><path d="m203.5 251.25c-2.277344 0-4.433594-1.035156-5.855469-2.816406l-16.5-20.625c-2.589843-3.234375-2.066406-7.953125 1.171875-10.539063 3.234375-2.589843 7.953125-2.066406 10.539063 1.167969l10.644531 13.304688 27.144531-33.929688c2.589844-3.234375 7.308594-3.757812 10.542969-1.167969 3.234375 2.585938 3.757812 7.304688 1.171875 10.539063l-33 41.25c-1.425781 1.78125-3.582031 2.816406-5.859375 2.816406zm0 0" fill="#02af8e"/></svg>